<?xml version="1.0" standalone="no"?>
<!DOCTYPE svg PUBLIC "-//W3C//DTD SVG 20010904//EN"
 "http://www.w3.org/TR/2001/REC-SVG-20010904/DTD/svg10.dtd">
<svg version="1.0" xmlns="http://www.w3.org/2000/svg"
 width="512.000000pt" height="512.000000pt" viewBox="0 0 512.000000 512.000000"
 preserveAspectRatio="xMidYMid meet">

<g transform="translate(0.000000,512.000000) scale(0.100000,-0.100000)"
fill="#000000" stroke="none">
<path d="M1443 4488 c-784 -454 -1094 -638 -1102 -655 -8 -17 -11 -402 -11
-1278 l0 -1255 27 -29 c35 -36 2175 -1271 2204 -1271 11 0 372 203 802 452
1080 623 1074 620 1239 715 81 46 157 96 168 110 20 25 20 38 20 1279 0 896
-3 1260 -11 1277 -8 17 -70 59 -193 129 -99 58 -591 342 -1093 631 -515 298
-922 527 -935 526 -13 0 -514 -284 -1115 -631z m1034 -335 c-2 -2 -31 -8 -63
-13 -99 -17 -1617 -211 -1620 -207 -2 1 376 221 839 488 l842 486 3 -375 c1
-206 1 -377 -1 -379z m1013 269 c443 -255 810 -469 815 -474 13 -13 -7 -11
-570 58 -671 81 -1006 125 -1072 139 l-23 5 0 381 0 380 23 -12 c12 -7 384
-221 827 -477z m-1112 -501 c-273 -483 -1155 -1998 -1159 -1993 -11 12 -702
1803 -697 1807 4 5 288 43 968 131 157 20 411 53 565 74 154 21 297 38 318 39
l39 1 -34 -59z m1312 -66 c492 -64 899 -120 903 -124 7 -7 -675 -1787 -691
-1803 -6 -6 -1175 2002 -1191 2044 -5 13 -58 20 979 -117z m-522 -979 c331
-573 602 -1046 602 -1050 0 -3 -544 -6 -1210 -6 -665 0 -1210 3 -1210 6 0 11
1204 2094 1210 2094 3 0 276 -470 608 -1044z m1472 -461 c0 -631 -3 -965 -10
-965 -10 0 -599 307 -613 320 -5 4 130 365 298 801 317 818 313 809 321 809 2
0 4 -434 4 -965z m-3835 150 c168 -433 303 -790 301 -793 -6 -5 -608 -322
-613 -322 -2 0 -3 430 -3 957 0 526 2 954 5 951 3 -2 142 -359 310 -793z
m2928 -927 c-11 -13 -267 -327 -568 -698 -302 -371 -561 -690 -576 -707 l-28
-33 -323 403 c-177 221 -441 549 -585 730 l-264 327 1182 0 1182 0 -20 -22z
m-2238 -378 c158 -195 311 -380 340 -410 62 -66 119 -136 170 -210 21 -30 78
-103 127 -162 48 -59 88 -109 88 -112 0 -3 -1639 939 -1647 947 -1 1 137 75
305 164 233 123 310 159 318 150 6 -7 141 -172 299 -367z m2754 216 c167 -87
299 -162 294 -166 -4 -5 -271 -160 -593 -346 -322 -186 -688 -397 -815 -470
-126 -73 -231 -131 -233 -129 -6 6 1030 1276 1038 1273 4 -2 143 -74 309 -162z"/>
<path d="M2178 2846 c-65 -18 -111 -56 -142 -118 -29 -58 -31 -76 -15 -112 25
-53 107 -50 129 5 24 57 48 79 89 79 49 0 81 -32 81 -82 0 -40 -35 -99 -175
-288 -112 -152 -118 -163 -110 -201 12 -55 36 -61 233 -62 190 0 216 6 232 48
12 33 -6 82 -33 91 -12 4 -64 10 -115 13 l-93 6 82 115 c106 149 133 207 133
285 -1 154 -145 263 -296 221z"/>
<path d="M2795 2851 c-76 -20 -136 -70 -169 -141 -18 -41 -20 -64 -20 -250 0
-172 3 -211 17 -244 29 -65 64 -103 121 -131 131 -64 290 -8 349 124 19 42 21
66 21 251 -1 227 -5 246 -65 315 -19 21 -52 46 -75 56 -48 22 -136 31 -179 20z
m137 -178 l28 -27 0 -184 c0 -106 -4 -191 -10 -203 -14 -25 -62 -49 -100 -49
-21 0 -41 9 -61 29 l-29 29 0 189 0 189 28 26 c15 14 34 28 42 31 27 11 74 -3
102 -30z"/>
</g>
</svg>
